<svg viewBox="0 0 118 42" fill="none" xmlns="http://www.w3.org/2000/svg">
<path d="M9.87537 16.842V15.7233C9.49211 15.6721 9.10246 15.6401 8.70003 15.6401C3.90288 15.6338 0 19.5399 0 24.3476C0 27.2947 1.46917 29.9031 3.71881 31.4822C2.26344 29.9287 1.37857 27.8381 1.37857 25.5494C1.37857 20.8121 5.17231 16.9507 9.87537 16.842Z" fill="#25F4EE"/>
<path d="M10.0862 29.5765C12.2261 29.5765 13.9763 27.8647 14.053 25.7419L14.0594 6.72728H17.5215C17.4512 6.33442 17.4129 5.92878 17.4129 5.51676H12.686L12.6796 24.5765C12.603 26.6993 10.8527 28.4111 8.71286 28.4111C8.04854 28.4111 7.42255 28.2452 6.86682 27.9544C7.58913 28.9378 8.76272 29.5765 10.0862 29.5765Z" fill="#25F4EE"/>
<path d="M23.9923 13.166V12.1112C22.6708 12.1112 21.4373 11.7439 20.3898 11.1115C21.3178 12.2302 22.5765 13.0488 23.9923 13.166Z" fill="#25F4EE"/>
<path d="M20.3898 11.1115C19.3423 9.87979 18.7163 8.29936 18.7163 6.5812H17.5215C17.8023 8.29936 18.7673 9.78129 20.3898 11.1115Z" fill="#FE2C55"/>
<path d="M8.70642 19.8326C6.22623 19.8326 4.20557 21.8548 4.20557 24.3411C4.20557 26.0039 5.12243 27.4602 6.47046 28.2003C5.96577 27.5765 5.66445 26.7772 5.66445 25.9077C5.66445 23.4214 7.68511 21.3992 10.1653 21.3992C10.5765 21.3992 10.9725 21.4568 11.3494 21.5592V16.7452C10.9725 16.694 10.5829 16.662 10.1781 16.662C10.1269 16.662 10.0821 16.6684 10.0309 16.6684V20.3574C9.61004 20.2614 9.17 20.2103 8.70642 20.2103V19.8326Z" fill="#FE2C55"/>
<path d="M23.9921 13.166V16.7452C21.5765 16.7452 19.3295 16.0129 17.4126 14.7858V24.3411C17.4126 29.1433 13.5095 33.0494 8.70631 33.0494C6.85546 33.0494 5.14502 32.4363 3.71875 31.4822C5.36537 33.2387 7.71146 34.3171 10.3068 34.3171C15.1104 34.3171 19.0135 30.411 19.0135 25.6089V16.0513C20.9241 17.2784 23.1775 18.0107 25.593 18.0107V13.2926C25.0371 13.2926 24.5004 13.2414 23.9921 13.166Z" fill="#FE2C55"/>
<path d="M17.4127 24.3411V14.7858C19.3233 16.0129 21.5766 16.7452 23.9922 16.7452V13.166C22.5765 13.0488 21.3178 12.2302 20.3899 11.1115C18.7673 9.78129 17.8024 8.29936 17.5765 6.5812H14.0594L14.053 25.7419C13.9764 27.8647 12.2261 29.5765 10.0863 29.5765C8.76281 29.5765 7.58921 28.9378 6.8669 27.9544C5.51887 27.2142 4.60201 25.7579 4.60201 24.0951C4.60201 21.6088 6.62267 19.5866 9.10286 19.5866C9.51408 19.5866 9.91011 19.6442 10.287 19.7466V16.0576C5.17241 16.1661 1.37866 20.0212 1.37866 24.7585C1.37866 27.0472 2.26353 29.1378 3.71889 30.6913C5.14516 31.6454 6.85561 32.2585 8.70645 32.2585C13.5096 32.2649 17.4127 28.3588 17.4127 24.3411Z" fill="white"/>
<path d="M30.0477 23.4277H31.0951C31.0951 24.9303 31.9738 25.753 33.2779 25.753C34.5757 25.753 35.2017 25.0015 35.2017 24.0602C35.2017 22.9415 34.4411 22.5422 33.3234 22.1429L32.4447 21.8265C30.8732 21.2967 29.9755 20.3681 29.9755 18.8527C29.9755 17.0962 31.3426 15.8435 33.1655 15.8435C35.0994 15.8435 36.3177 16.9494 36.3177 18.7635H35.2766C35.2766 17.5492 34.4987 16.8553 33.2139 16.8553C32.0275 16.8553 31.0951 17.516 31.0951 18.7315C31.0951 19.692 31.607 20.288 32.8662 20.7513L33.7576 21.0741C35.4297 21.6551 36.3304 22.5998 36.3304 24.0218C36.3304 25.8872 35.0378 26.7675 33.2587 26.7675C31.2636 26.7675 30.0477 25.5468 30.0477 23.4277Z" fill="white"/>
<path d="M41.1788 26.5533H40.0801V13.2991H41.1788V19.1445C41.6003 18.0706 42.6221 17.3384 44.0108 17.3384C46.099 17.3384 47.4021 18.6231 47.4021 21.0932V26.5533H46.3097V21.2649C46.3097 19.3484 45.3197 18.3175 43.7097 18.3175C42.0824 18.3175 41.1788 19.4554 41.1788 21.2457V26.5533Z" fill="white"/>
<path d="M48.5818 21.9673C48.5818 19.2909 50.3047 17.3296 52.7587 17.3296C55.1999 17.3296 56.8975 19.2781 56.8975 21.9673C56.8975 24.6181 55.1935 26.5797 52.7587 26.5797C50.311 26.5797 48.5818 24.6117 48.5818 21.9673ZM55.7988 21.9545C55.7988 19.8418 54.596 18.3111 52.7587 18.3111C50.9086 18.3111 49.6866 19.8354 49.6866 21.9545C49.6866 24.0736 50.9022 25.5788 52.7587 25.5788C54.6024 25.5788 55.7988 24.0608 55.7988 21.9545Z" fill="white"/>
<path d="M58.0974 17.5107H59.0913V19.1253C59.5256 18.0002 60.5921 17.3296 61.9424 17.3296C64.074 17.3296 65.3392 18.6207 65.3392 21.0996V26.5533H64.2469V21.2713C64.2469 19.3548 63.2568 18.3175 61.628 18.3175C60.0119 18.3175 59.1909 19.4554 59.1909 21.2521V26.5533H58.0974V17.5107Z" fill="white"/>
<path d="M66.7036 21.9673C66.7036 19.2909 68.4265 17.3296 70.8804 17.3296C73.3216 17.3296 75.0192 19.2781 75.0192 21.9673C75.0192 24.6181 73.3152 26.5797 70.8804 26.5797C68.4329 26.5797 66.7036 24.6117 66.7036 21.9673ZM73.9205 21.9545C73.9205 19.8418 72.7177 18.3111 70.8804 18.3111C69.0303 18.3111 67.8083 19.8354 67.8083 21.9545C67.8083 24.0736 69.0239 25.5788 70.8804 25.5788C72.7241 25.5788 73.9205 24.0608 73.9205 21.9545Z" fill="white"/>
<path d="M76.219 17.5107H77.2129V19.5022C77.5768 18.168 78.6048 17.3296 80.0192 17.3296V18.4675C78.3919 18.4675 77.3129 19.4298 77.3129 21.4661V26.5533H76.219V17.5107Z" fill="white"/>
<path d="M84.0427 26.7675C81.7775 26.7675 80.0483 24.6181 80.0483 21.9353C80.0483 19.2525 81.7775 17.1159 84.0427 17.1159C85.3852 17.1159 86.5011 17.7254 87.0322 18.8761V13.2991H88.1258V26.5533H87.0322V25.0034C86.4947 26.1285 85.3852 26.7675 84.0427 26.7675ZM84.2571 18.1296C82.4646 18.1296 81.1529 19.6411 81.1529 21.9353C81.1529 24.2168 82.4646 25.741 84.2571 25.741C86.0944 25.741 87.3349 24.1911 87.3349 21.9353C87.3349 19.6539 86.0944 18.1296 84.2571 18.1296Z" fill="white"/>
<path d="M89.4927 21.9353C89.4927 19.1189 91.3044 17.1159 93.9008 17.1159C96.4076 17.1159 98.0861 18.9491 98.0861 21.6831C98.0861 21.8293 98.0797 21.9673 98.0669 22.1453H90.5783C90.7351 24.3244 92.0468 25.741 93.9584 25.741C95.4771 25.741 96.5373 24.9154 96.8436 23.6563H97.9885C97.5862 25.516 96.0227 26.7675 93.9584 26.7675C91.2516 26.7675 89.4927 24.784 89.4927 21.9353ZM90.5911 21.1865H96.9628C96.9244 19.3548 95.7024 18.1424 93.9008 18.1424C92.0852 18.1424 90.8504 19.3868 90.5911 21.1865Z" fill="white"/>
<path d="M99.0123 17.5107H100.006V19.1253C100.44 18.0002 101.507 17.3296 102.857 17.3296C104.989 17.3296 106.254 18.6207 106.254 21.0996V26.5533H105.162V21.2713C105.162 19.3548 104.172 18.3175 102.543 18.3175C100.927 18.3175 100.106 19.4554 100.106 21.2521V26.5533H99.0123V17.5107Z" fill="white"/>
<path d="M107.619 17.5107H108.612V19.5022C108.976 18.168 110.004 17.3296 111.419 17.3296V18.4675C109.791 18.4675 108.712 19.4298 108.712 21.4661V26.5533H107.619V17.5107Z" fill="white"/>
<path d="M112.143 23.4277H113.19C113.19 24.9303 114.069 25.753 115.373 25.753C116.671 25.753 117.297 25.0015 117.297 24.0602C117.297 22.9415 116.536 22.5422 115.419 22.1429L114.54 21.8265C112.968 21.2967 112.071 20.3681 112.071 18.8527C112.071 17.0962 113.438 15.8435 115.261 15.8435C117.195 15.8435 118.413 16.9494 118.413 18.7635H117.372C117.372 17.5492 116.594 16.8553 115.309 16.8553C114.123 16.8553 113.19 17.516 113.19 18.7315C113.19 19.692 113.702 20.288 114.961 20.7513L115.853 21.0741C117.525 21.6551 118.426 22.5998 118.426 24.0218C118.426 25.8872 117.133 26.7675 115.354 26.7675C113.359 26.7675 112.143 25.5468 112.143 23.4277Z" fill="white"/>
</svg>
